<?xml version="1.0" encoding="UTF-8" standalone="no"?>
<svg
   xmlns:dc="http://purl.org/dc/elements/1.1/"
   xmlns:cc="http://creativecommons.org/ns#"
   xmlns:rdf="http://www.w3.org/1999/02/22-rdf-syntax-ns#"
   xmlns:svg="http://www.w3.org/2000/svg"
   xmlns="http://www.w3.org/2000/svg"
   xmlns:sodipodi="http://sodipodi.sourceforge.net/DTD/sodipodi-0.dtd"
   xmlns:inkscape="http://www.inkscape.org/namespaces/inkscape"
   width="58.396854mm"
   height="109.53751mm"
   viewBox="0 0 58.396854 109.53751"
   version="1.1"
   id="svg910"
   inkscape:version="1.0.2 (e86c870879, 2021-01-15)"
   sodipodi:docname="icons8-netflix.svg">
  <defs
     id="defs904" />
  <sodipodi:namedview
     id="base"
     pagecolor="#ffffff"
     bordercolor="#666666"
     borderopacity="1.0"
     inkscape:pageopacity="0.0"
     inkscape:pageshadow="2"
     inkscape:zoom="0.98994949"
     inkscape:cx="324.81435"
     inkscape:cy="207.31239"
     inkscape:document-units="mm"
     inkscape:current-layer="surface38960140"
     inkscape:document-rotation="0"
     showgrid="false"
     inkscape:window-width="1888"
     inkscape:window-height="985"
     inkscape:window-x="1936"
     inkscape:window-y="48"
     inkscape:window-maximized="0" />
  <metadata
     id="metadata907">
    <rdf:RDF>
      <cc:Work
         rdf:about="">
        <dc:format>image/svg+xml</dc:format>
        <dc:type
           rdf:resource="http://purl.org/dc/dcmitype/StillImage" />
        <dc:title></dc:title>
      </cc:Work>
    </rdf:RDF>
  </metadata>
  <g
     inkscape:label="Layer 1"
     inkscape:groupmode="layer"
     id="layer1"
     transform="translate(-63.783715,-54.84434)">
    <g
       id="surface38960140"
       transform="matrix(0.26458333,0,0,0.26458333,30.375934,45.22839)">
      <path
         style="fill:#2465c6;fill-opacity:1;fill-rule:nonzero;stroke:none"
         d="m 129.25,447.34375 v -408 h 77.54687 v 396 z m 0,0"
         id="path912" />
      <path
         style="fill:#2459c6;fill-opacity:1;fill-rule:nonzero;stroke:none"
         d="m 129.25,450.34375 c -0.70313,0 -1.39453,-0.25391 -1.9375,-0.72266 -0.66797,-0.57422 -1.04687,-1.41015 -1.04687,-2.27734 v -408 c 0,-1.65625 1.33984,-3 2.98437,-3 h 77.54687 c 1.64454,0 2.98047,1.34375 2.98047,3 v 396 c 0,1.48047 -1.07031,2.74219 -2.52734,2.96094 l -77.54688,12 c -0.14843,0.0234 -0.30468,0.0391 -0.45312,0.0391 z m 2.98437,-408 v 401.5 L 203.8125,432.76953 V 42.34375 Z m 0,0"
         id="path914" />
      <path
         style="fill:#2465c6;fill-opacity:1;fill-rule:nonzero;stroke:none"
         d="m 272.41406,39.34375 v 186 l 71.58203,216 v -402 z m 0,0"
         id="path916" />
      <path
         style="fill:#2459c6;fill-opacity:1;fill-rule:nonzero;stroke:none"
         d="m 343.99609,444.34375 c -1.26562,0 -2.41797,-0.8125 -2.83593,-2.05469 l -71.58204,-216 c -0.0937,-0.30469 -0.14843,-0.6289 -0.14843,-0.94531 v -186 c 0,-1.65625 1.33593,-3 2.98437,-3 h 71.58203 c 1.64453,0 2.98047,1.34375 2.98047,3 v 402 c 0,1.46875 -1.0625,2.72266 -2.5039,2.95703 -0.16407,0.0273 -0.32422,0.043 -0.47657,0.043 z m -68.60156,-219.48828 65.61719,198 V 42.34375 h -65.61719 z m 0,0"
         id="path918" />
      <path
         style="fill:#2465c6;fill-opacity:1;fill-rule:nonzero;stroke:none"
         d="m 206.79687,39.34375 h -77.23046 l 136.88281,396 77.54687,6 z m 0,0"
         id="path920" />
      <path
         style="fill:#2459c6;fill-opacity:1;fill-rule:nonzero;stroke:none"
         d="m 343.99609,444.34375 c -0.0781,0 -0.15234,0 -0.23047,-0.0156 l -77.54296,-6 c -1.1836,-0.0898 -2.20313,-0.875 -2.59766,-2.0039 L 126.74609,40.324219 c -0.3164,-0.910157 -0.16796,-1.929688 0.38672,-2.722657 0.55469,-0.792968 1.46094,-1.257812 2.42578,-1.257812 h 77.23828 c 1.27735,0 2.40235,0.8125 2.82032,2.027344 L 346.81641,440.37109 c 0.32812,0.95313 0.14843,2.00782 -0.46094,2.8086 -0.56641,0.73047 -1.44141,1.16406 -2.35938,1.16406 z M 268.625,432.49609 339.69922,438 204.66797,42.34375 h -70.91016 z m 0,0"
         id="path922" />
    </g>
  </g>
</svg>
