<?xml version="1.0" encoding="UTF-8" standalone="no"?>
<svg
   xmlns:dc="http://purl.org/dc/elements/1.1/"
   xmlns:cc="http://creativecommons.org/ns#"
   xmlns:rdf="http://www.w3.org/1999/02/22-rdf-syntax-ns#"
   xmlns:svg="http://www.w3.org/2000/svg"
   xmlns="http://www.w3.org/2000/svg"
   xmlns:sodipodi="http://sodipodi.sourceforge.net/DTD/sodipodi-0.dtd"
   xmlns:inkscape="http://www.inkscape.org/namespaces/inkscape"
   width="113.94945mm"
   height="113.73466mm"
   viewBox="0 0 113.94945 113.73466"
   version="1.1"
   id="svg8"
   inkscape:version="1.0.2 (e86c870879, 2021-01-15)"
   sodipodi:docname="icons8-crunchyroll.svg">
  <defs
     id="defs2" />
  <sodipodi:namedview
     id="base"
     pagecolor="#ffffff"
     bordercolor="#666666"
     borderopacity="1.0"
     inkscape:pageopacity="0.0"
     inkscape:pageshadow="2"
     inkscape:zoom="0.35"
     inkscape:cx="215.33754"
     inkscape:cy="257.78877"
     inkscape:document-units="mm"
     inkscape:current-layer="layer1"
     inkscape:document-rotation="0"
     showgrid="false"
     inkscape:window-width="1888"
     inkscape:window-height="985"
     inkscape:window-x="1936"
     inkscape:window-y="48"
     inkscape:window-maximized="0" />
  <metadata
     id="metadata5">
    <rdf:RDF>
      <cc:Work
         rdf:about="">
        <dc:format>image/svg+xml</dc:format>
        <dc:type
           rdf:resource="http://purl.org/dc/dcmitype/StillImage" />
        <dc:title></dc:title>
      </cc:Work>
    </rdf:RDF>
  </metadata>
  <g
     inkscape:label="Layer 1"
     inkscape:groupmode="layer"
     id="layer1"
     transform="translate(-48.858609,-79.960055)">
    <path
       style="fill:#2465c6;fill-opacity:1;fill-rule:nonzero;stroke:none;stroke-width:0.264583"
       d="m 107.06694,79.960055 c -32.146873,0 -58.208331,26.061455 -58.208331,58.208335 0,40.18463 27.483594,51.69607 46.007528,55.49532 0.103352,0.0207 0.204639,0.031 0.299723,0.031 1.336352,0 1.863452,-1.93477 0.511595,-2.52698 -19.606037,-8.57518 -33.510098,-28.32178 -30.520099,-51.69193 2.900081,-22.68492 21.390942,-40.811976 44.121334,-43.325519 1.92857,-0.21394 3.83956,-0.315226 5.72575,-0.315226 19.95227,0 37.15949,11.630295 45.26339,28.478885 0.26148,0.5426 0.7276,0.78031 1.19373,0.78031 0.78031,0 1.55132,-0.66456 1.29707,-1.64331 -4.61987,-17.7984 -18.65002,-43.490885 -55.69169,-43.490885 z m 10.58333,29.104165 c -22.540222,0 -40.694152,18.78852 -39.646153,41.55819 0.929142,20.21169 17.561719,36.84117 37.770303,37.77031 0.62735,0.032 1.25677,0.0465 1.87585,0.0465 21.92114,0 39.68751,-17.76637 39.68751,-39.68751 0,-3.12435 -0.36897,-6.16396 -1.0542,-9.07955 -0.15607,-0.65836 -0.7121,-1.01802 -1.28675,-1.01802 -0.40721,0 -0.81752,0.17983 -1.10587,0.56327 -3.13573,4.18062 -8.12354,6.88847 -13.7511,6.88847 -0.27286,0 -0.54674,-0.007 -0.82166,-0.0207 -8.35504,-0.3886 -15.45539,-7.07553 -16.28841,-15.39957 -0.71417,-7.12825 2.93419,-13.46585 8.58862,-16.69666 0.99736,-0.56844 0.91364,-2.01331 -0.1602,-2.41845 -4.29947,-1.60612 -8.94518,-2.50632 -13.80794,-2.50632 z m 40.47299,33.32613 h 0.0103 z m 0,0"
       id="path10" />
  </g>
</svg>
